<svg id="visual" viewBox="0 0 900 600" width="900" height="600" xmlns="http://www.w3.org/2000/svg" xmlns:xlink="http://www.w3.org/1999/xlink" version="1.1"><rect x="0" y="0" width="900" height="600" fill="#fff"></rect><defs><linearGradient id="grad1_0" x1="33.3%" y1="100%" x2="100%" y2="0%"><stop offset="20%" stop-color="#ffffff" stop-opacity="1"></stop><stop offset="80%" stop-color="#ffffff" stop-opacity="1"></stop></linearGradient></defs><defs><linearGradient id="grad2_0" x1="0%" y1="100%" x2="66.7%" y2="0%"><stop offset="20%" stop-color="#ffffff" stop-opacity="1"></stop><stop offset="80%" stop-color="#ffffff" stop-opacity="1"></stop></linearGradient></defs><g transform="translate(900, 600)"><path d="M-324.5 0C-305.5 -29.1 -286.5 -58.2 -277.7 -90.2C-268.9 -122.2 -270.4 -157.1 -258.1 -187.5C-245.7 -217.9 -219.5 -243.7 -190.7 -262.5C-161.9 -281.4 -130.5 -293.3 -98.3 -302.4C-66 -311.6 -33 -318.1 0 -324.5L0 0Z" fill="#16eead"></path></g><g transform="translate(0, 0)"><path d="M324.5 0C323.9 35.8 323.3 71.5 308.6 100.3C293.9 129 265.1 150.8 243.5 176.9C221.9 203.1 207.4 233.7 183.4 252.4C159.4 271.2 125.8 278.1 93.6 288.2C61.5 298.2 30.7 311.4 0 324.5L0 0Z" fill="#16eead"></path></g></svg>