<svg id="visual" viewBox="0 0 900 600" width="900" height="600" xmlns="http://www.w3.org/2000/svg" xmlns:xlink="http://www.w3.org/1999/xlink" version="1.1"><path d="M0 155L16.7 157.7C33.3 160.3 66.7 165.7 100 181.8C133.3 198 166.7 225 200 234.5C233.3 244 266.7 236 300 228.3C333.3 220.7 366.7 213.3 400 194C433.3 174.7 466.7 143.3 500 151.5C533.3 159.7 566.7 207.3 600 231C633.3 254.7 666.7 254.3 700 227.5C733.3 200.7 766.7 147.3 800 141.8C833.3 136.3 866.7 178.7 883.3 199.8L900 221L900 0L883.3 0C866.7 0 833.3 0 800 0C766.7 0 733.3 0 700 0C666.7 0 633.3 0 600 0C566.7 0 533.3 0 500 0C466.7 0 433.3 0 400 0C366.7 0 333.3 0 300 0C266.7 0 233.3 0 200 0C166.7 0 133.3 0 100 0C66.7 0 33.3 0 16.7 0L0 0Z" fill="#6743FA" stroke-linecap="round" stroke-linejoin="miter"></path></svg>